PathFileType	4	(X/Y/Z)	OpenSim_Sub06_EMGBaseline_Gyro.trc
DataRate	CameraRate	NumFrames	NumMarkers	Units	OrigDataRate	OrigDataStartFrame	OrigNumFrames
100	100	40	8	m	100	4136	8270
Frame#	Time	torso_imu_offset_imu	pelvis_imu_offset_imu	tibia_r_imu_offset_imu	femur_r_imu_offset_imu	tibia_l_imu_offset_imu	femur_l_imu_offset_imu	toes_r_imu_offset_imu	toes_l_imu_offset_imu
				X1	Y1	Z1	X2	Y2	Z2	X3	Y3	Z3	X4	Y4	Z4	X5	Y5	Z5	X6	Y6	Z6	X7	Y7	Z7	X8		Y8	Z8	

4136	41.35000000	-0.24344878	0.41736683	-0.03319688	-0.27444066	-0.30719720	0.00962262	0.31761942	0.23995258	-1.80320048	0.09370521	0.32405109	-0.08713964	0.43292591	-0.46345295	2.02426217	-0.18032018	-1.03256727	0.07727530	0.19327714	-1.73272047	-0.78541626	-8.38874398	-1.45202465	0.57181858
4137	41.36000000	-0.30987989	0.47127339	-0.02766164	-0.26940707	-0.31814762	0.00982914	0.31824095	0.22217136	-1.88299372	0.05617199	0.40528882	-0.02511622	0.09546115	-0.48985431	1.67610329	-0.06887210	-1.21031349	0.30111065	0.17158892	-1.93523036	-0.86706630	-2.24473270	-1.97835790	0.04014135
4138	41.37000000	-0.37247961	0.50913073	-0.01409245	-0.22888901	-0.34281414	-0.01564294	0.29920863	0.16898002	-1.96396639	0.03474327	0.50394199	0.04965039	0.40992492	-0.62501285	0.65822138	0.13994027	-1.26286022	0.49605730	0.15982378	-2.14112876	-0.94268015	-2.32665619	-3.52872437	1.66597698
4139	41.38000000	-0.41832899	0.50335028	-0.01353459	-0.08154219	-0.37688319	-0.10049438	0.28640879	0.13001412	-2.02827332	0.05368744	0.57113532	0.14233332	0.46576563	-0.25931371	-0.49319900	0.29310594	-1.08412153	0.67425838	0.12749247	-2.45392326	-1.02985102	-1.81770481	4.21404642	-0.89152919
4140	41.39000000	-0.42099144	0.44269812	-0.00900934	0.13237600	-0.38204636	-0.26723678	0.31272087	0.08861771	-2.07812800	0.09121105	0.60881016	0.25874027	-0.15562787	0.05775021	-0.15075508	0.40132715	-0.56772565	0.92793291	0.08440445	-2.76289866	-1.15212900	8.60893287	-0.86044395	-0.33201738
4141	41.40000000	-0.37339591	0.40933700	0.08199345	0.32065151	-0.35707663	-0.41965988	0.30767027	-0.02147167	-2.11310344	0.21189711	0.64081435	0.41308161	-1.17512246	0.29859551	1.64675158	0.76243520	0.00011004	1.20175016	0.05785364	-3.15576136	-1.30200923	-1.14850260	-0.15814357	0.07224746
4142	41.41000000	-0.35662487	0.39062099	0.17418056	0.42721179	-0.32353909	-0.50424568	0.16912288	-0.14216181	-2.15071170	0.42162899	0.70076861	0.57573421	-2.10700325	0.59279349	2.31511438	1.18361181	0.14479940	0.90136030	0.15939681	-3.62046806	-1.45710533	-4.34513534	0.04500979	0.02707077
4143	41.42000000	-0.27745940	0.33407453	0.17004997	0.53488254	-0.25559689	-0.31157395	0.07005993	-0.21219755	-2.20866100	0.57003382	0.84405747	0.74833864	-2.97480354	0.61863784	2.34441103	1.09211318	-0.04257018	0.14166600	0.32391741	-4.11900621	-1.62487194	2.42610582	-0.38387927	-0.31937632
4144	41.43000000	-0.20410729	0.26419280	0.14925881	0.62708296	-0.15317558	-0.04321169	-0.04050401	-0.19772622	-2.28303550	0.64828300	1.07335901	0.98266453	-3.26982534	0.05648879	2.24172755	0.24020016	0.03605397	-0.31837909	0.46460389	-4.63256205	-1.78438889	0.27429451	-0.21893651	-0.32639902
4145	41.44000000	-0.15994317	0.22759731	0.12098766	0.59131563	-0.07600648	0.15145931	-0.06889184	-0.10535821	-2.38692159	0.66278328	1.29587203	1.25681466	-2.90921957	-0.69924434	1.63658768	-0.53838217	0.07904591	-0.48148727	0.65031571	-5.13835732	-1.97489324	0.11730224	-0.17783567	-0.35435203
4146	41.45000000	-0.18026581	0.21393545	0.11086843	0.46743411	-0.02739838	0.27968321	-0.05695247	0.00770030	-2.48958398	0.58741115	1.40713167	1.53666237	-2.29298527	-0.99032689	1.14618381	-1.02813973	-0.04679734	-0.42243887	0.61973674	-5.51647778	-2.25654118	0.50665938	-0.09937674	-0.28122715
4147	41.46000000	-0.25985161	0.19382844	0.10550029	0.28478361	-0.01450375	0.31250502	-0.19858485	0.06067496	-2.52863103	0.55039024	1.49793039	1.75919042	-1.62885529	-0.77106604	0.86095399	-1.43594866	-0.17091600	-0.07389086	0.80519688	-5.72127564	-2.49537261	0.07509652	0.06184813	-0.18185171
4148	41.47000000	-0.38387876	0.15909729	0.11443912	0.07355341	-0.04963945	0.28501863	-0.46343745	0.16070603	-2.52800521	0.46356831	1.57343139	1.88380527	-0.95912797	-0.62463304	0.34943705	-1.49775152	-0.45772405	0.59812267	0.80570219	-5.71379421	-2.70197025	0.17512629	0.12366339	-0.05229336
4149	41.48000000	-0.50696924	0.14004591	0.10385697	-0.13115877	-0.07200566	0.22400535	-0.67292021	0.23227840	-2.48705983	0.36326730	1.56752493	1.92948811	-0.34204490	-0.54985656	0.08281879	-1.11237667	-0.87822914	1.37666558	0.86738293	-5.50918715	-2.94206519	0.06779598	0.18272133	0.00858396
4150	41.49000000	-0.55697001	0.12940417	0.08005656	-0.30222276	-0.04420822	0.09421208	-0.73844867	0.16118416	-2.30633371	0.30507189	1.50529808	1.93100241	0.38275657	-0.33795374	0.33745056	-0.61372118	-1.04608020	1.72234756	0.94147860	-5.07588247	-3.12281076	0.09165401	0.14620220	0.08127108
4151	41.50000000	-0.58194255	0.09785757	0.04927319	-0.42582965	0.02365396	-0.01684877	-0.72974651	0.00109058	-1.98327397	0.23564421	1.44013841	1.90610890	1.39831277	-0.09647676	0.62642599	0.00948064	-0.80468695	1.68943939	1.19000178	-4.83869422	-3.37909314	0.06268281	0.11858713	0.07578872
4152	41.51000000	-0.61081911	0.05386482	0.00863090	-0.48517198	0.07931750	-0.12167562	-0.71466552	-0.16046239	-1.53433831	0.12133822	1.37367709	1.84996866	1.96886177	0.08817593	0.78739747	0.68081829	-0.44355926	1.54448711	1.23822779	-4.88392303	-3.67208287	0.14523135	0.04502772	0.05249859
4153	41.52000000	-0.64865705	-0.00063516	-0.03224779	-0.51073575	0.08905475	-0.22387474	-0.74751085	-0.25199273	-1.08379363	0.01060020	1.32851331	1.80070990	1.76343004	0.18367998	0.92951346	1.09965551	-0.20669360	1.32204873	1.57468117	-5.14601765	-3.84705765	0.12616430	0.05254881	0.04631869
4154	41.53000000	-0.62742594	-0.06068622	-0.11297642	-0.52346727	0.07142076	-0.31047076	-1.00239098	-0.24181797	-0.71247184	-0.10963912	1.28566552	1.77284869	1.15640004	0.12851296	0.98008490	1.05503359	-0.14555822	0.98472560	0.45307712	-4.66323789	-3.42260410	0.15290126	0.00080882	0.05129825
4155	41.54000000	-0.57719205	-0.06849400	-0.19100946	-0.54114344	0.05551719	-0.34405544	-1.23054541	-0.24052867	-0.42281285	-0.28491509	1.28783526	1.80086902	0.48257445	-0.00236760	0.94970829	0.62558368	-0.20386045	0.70735429	-2.56711816	-1.64144964	-1.81365850	0.03565189	-0.03069524	0.07790317
4156	41.55000000	-0.57655667	-0.06495972	-0.22626555	-0.51903584	0.03489445	-0.31898257	-1.59206569	-0.29652103	-0.22233974	-0.52819563	1.33384225	1.86027954	-0.22636297	-0.11566557	0.80930756	0.16714986	-0.27435539	0.66180789	-3.11432749	3.12815127	0.08821837	0.11262820	-0.05104202	0.04719283
4157	41.56000000	-0.59469266	-0.05864870	-0.26440742	-0.40452851	0.01268403	-0.22930649	-1.78292267	-0.34047467	-0.20566552	-0.78548808	1.32567852	1.91367998	-0.84225808	-0.18687811	0.53392554	-0.25197625	-0.25247640	0.72788404	-2.94890845	4.48288818	0.60778972	0.10773330	-0.08901954	0.03944682
4158	41.57000000	-0.61848195	-0.08707144	-0.31128442	-0.28732210	0.00912983	-0.07771284	-1.94306118	-0.81277388	-0.24698367	-0.91434045	1.23722404	1.87474731	-1.35490478	-0.18420177	0.35326375	-0.61161383	-0.17474239	0.78449116	-2.03388637	4.12372903	0.35436078	0.11387414	-0.07933326	0.01560841
4159	41.58000000	-0.63650112	-0.13606791	-0.37076092	-0.22621940	0.03569868	0.05468286	-2.71535063	-1.54500223	0.00890420	-0.89202168	1.13558407	1.80881878	-1.75909766	-0.19724418	0.33199987	-0.80716809	-0.14497982	0.89958483	-1.14482381	3.78016129	0.12951441	0.05487557	-0.12164158	0.02293937
4160	41.59000000	-0.64545374	-0.19002735	-0.42429028	-0.23328200	0.07749831	0.18138038	-3.67859021	-1.91660320	0.58354488	-0.84007863	1.02292060	1.73874053	-1.89672814	-0.24612566	0.36512173	-0.80739631	-0.22068484	1.02029532	-0.69795578	3.79250056	0.33986789	0.05047408	-0.15535317	0.02242445
4161	41.60000000	-0.65170591	-0.21206452	-0.46081535	-0.30170574	0.10600820	0.30434059	-3.95063112	-1.65665191	1.27101584	-0.78031195	0.86210048	1.62264759	-1.73133891	-0.20310047	0.38900235	-0.73277274	-0.34083885	1.04317512	-0.65585299	4.12183269	0.96206329	0.07294449	-0.20733960	0.01494319
4162	41.61000000	-0.72191517	-0.19208574	-0.41050780	-0.41256509	0.09854129	0.35909368	-3.53061489	-1.14336410	1.94049949	-0.76647127	0.71562817	1.44547905	-1.33512466	-0.12338662	0.45503124	-0.63641211	-0.42855443	1.05180086	-0.81871584	4.63048201	1.68675403	0.06262835	-0.20156784	0.01516033
4163	41.62000000	-0.80858838	-0.19753061	-0.32889414	-0.50999546	0.07453215	0.37432634	-2.78210504	-0.72889309	2.50849910	-0.79928941	0.61261427	1.31444067	-0.89102734	-0.06211508	0.58509602	-0.52654615	-0.39795488	1.10035379	-0.93735613	5.02985253	2.23469751	0.10220744	-0.23864084	0.02442251
4164	41.63000000	-0.81408383	-0.20271703	-0.27776921	-0.54149346	0.06570774	0.37298006	-1.96857584	-0.44597939	2.94335574	-0.85698403	0.52544398	1.26922302	-0.45019795	-0.01090376	0.68649526	-0.46154486	-0.34679931	1.16885510	-1.02956862	5.20503047	2.50223665	0.01679327	-0.25295115	0.05046537
4165	41.64000000	-0.75708651	-0.19359138	-0.25986676	-0.52573298	0.06624598	0.33735580	-1.05913327	-0.28419564	3.29859970	-0.87960328	0.42235926	1.23849172	-0.01145120	0.04487548	0.70663546	-0.43623476	-0.33471954	1.21634567	-1.09616868	5.20474585	2.53833031	0.06335088	-0.22976522	0.06689823
4166	41.65000000	-0.74712178	-0.18646322	-0.24523083	-0.50752402	0.08170833	0.29603251	-0.19809884	-0.20965988	3.67244232	-0.84746968	0.29534351	1.21377568	0.36789603	0.11373188	0.67179558	-0.42287753	-0.35853393	1.23538266	-1.23502227	5.04119177	2.40832917	0.00696359	-0.27261607	0.10378746
4167	41.66000000	-0.72528776	-0.17248498	-0.24802302	-0.50691953	0.09881856	0.23616114	0.47645402	-0.17201017	3.99891263	-0.78683706	0.17559946	1.14691658	0.58712830	0.17353808	0.65116900	-0.38920012	-0.33349969	1.19799022	-1.49775255	4.83637494	2.26881771	0.03572460	-0.22485397	0.10423051
4168	41.67000000	-0.71500050	-0.15939049	-0.25155929	-0.50609774	0.10076249	0.17749680	1.04272373	-0.11891652	4.25057342	-0.71215547	0.05966554	1.04817887	0.61887345	0.19841267	0.66003630	-0.31436178	-0.24288776	1.12486423	-1.85659831	4.67136311	2.17827655	0.01433096	-0.24878044	0.12231505
4169	41.68000000	-0.68998455	-0.15221761	-0.26263434	-0.51432489	0.11117306	0.12634038	1.56437489	0.01962404	4.49554120	-0.59329286	-0.03158882	0.90313081	0.53250548	0.19760604	0.69143867	-0.18401759	-0.13978038	1.03189494	-2.16023539	4.57459170	2.16289262	-0.02678325	-0.25154481	0.14622524
4170	41.69000000	-0.68370374	-0.14364632	-0.27868818	-0.51639058	0.14157128	0.07722873	1.87195219	0.19120069	4.68026417	-0.40534574	-0.11710571	0.70608848	0.36853644	0.17325480	0.70936950	-0.04018146	-0.08680843	0.96424526	-2.33558116	4.50632510	2.19398914	-0.01686794	-0.23740202	0.15738901
4171	41.70000000	-0.65529032	-0.14194698	-0.29410864	-0.50854076	0.17495699	0.02237174	1.81106020	0.25602988	4.82483478	-0.11821019	-0.20355426	0.47547010	0.12558448	0.12663161	0.71430043	0.10009466	-0.07886620	0.94756740	-2.34899490	4.43457706	2.21667872	-0.05647622	-0.24331186	0.16608740
4172	41.71000000	-0.63800693	-0.16725336	-0.30125335	-0.46636014	0.20474826	-0.00513998	1.37314192	0.01068347	4.97950391	0.19523473	-0.29337435	0.24944162	-0.13429745	0.09775216	0.69661928	0.20492910	-0.10035139	0.97247818	-2.10807698	4.26347175	2.26408826	0.00685580	-0.21957088	0.16445954
4173	41.72000000	-0.63488185	-0.17501718	-0.31550568	-0.40717096	0.21995791	-0.02391468	0.62395351	-0.33741349	5.12086028	0.45375000	-0.35115834	0.00664988	-0.31534989	0.07646414	0.68820836	0.24880141	-0.11798758	0.98804453	-1.65079664	3.95007139	2.38762781	-0.07504793	-0.24911176	0.18351281
4174	41.73000000	-0.62734381	-0.16882757	-0.31491836	-0.32897026	0.20134137	-0.01203047	0.19591556	-0.36249340	5.16970412	0.66711626	-0.36922534	-0.23461918	-0.38482308	0.05393473	0.71789948	0.23898586	-0.12343941	0.98875429	-1.12530544	3.47094009	2.59994429	-0.13235637	-0.24328325	0.20067317
4175	41.74000000	-0.59584834	-0.17006562	-0.31701686	-0.26993113	0.16790640	0.00915816	0.49303182	-0.11221492	5.17915710	0.83294738	-0.35190238	-0.45620090	-0.39104121	0.07607859	0.76990724	0.19866404	-0.10873273	0.96532972	-0.69520222	2.93877386	2.94716370	-0.07254624	-0.26509850	0.22340681
